G04 ===== Begin FILE IDENTIFICATION =====*
G04 File Format:  Gerber RS274X*
G04 ===== End FILE IDENTIFICATION =====*
%FSDAX34Y34*%
%MOMM*%
%SFA1.0000B1.0000*%
%OFA0.0B0.0*%
%ADD14R,60.000000X0.635000*%
%ADD15R,23.150000X0.635000*%
%ADD16R,60.000000X15.047500*%
%ADD17R,36.350000X0.635000*%
%ADD18R,0.635000X5.900000*%
%ADD19R,0.635000X0.900000*%
%ADD20R,0.635000X25.000000*%
%ADD21R,29.250000X0.635000*%
%ADD22R,28.932500X24.482500*%
%ADD23R,28.432500X24.482500*%
%ADD24R,30.520000X0.635000*%
%ADD25R,30.000000X0.635000*%
%ADD26C,0.025000*%
%LNcond*%
%IPPOS*%
%LPD*%
G75*
D14*
X-0576610Y0213690D03*
D15*
X-0762610Y0036865D03*
D16*
X-0577610Y0125278D03*
D17*
X-0461110Y0036865D03*
D18*
X-0601860Y-0012635D03*
D19*
Y0025365D03*
D20*
X-0580110Y-0343310D03*
D21*
X-0426860Y-0211310D03*
D22*
X-0422272Y-0346898D03*
G36*
G01X-0588685Y0023690D02*
G01Y-0052135D01*
G01X-0615035D01*
G01Y0023690D01*
G01X-0877610D01*
G01Y-0198135D01*
G01X-0277610D01*
G01Y0023690D01*
G01X-0588685D01*
G37*
D23*
X-0735448Y-0346898D03*
D24*
X-0727010Y-0211310D03*
D25*
X-0726610Y0550690D03*
G36*
G01X-0877610Y0226865D02*
G01X-0277610D01*
G01Y0751690D01*
G01X-0877610D01*
G01Y0563865D01*
G01X-0566610D01*
G01Y0537515D01*
G01X-0877610D01*
G01Y0401865D01*
G01X-0566610D01*
G01Y0375515D01*
G01X-0877610D01*
G01Y0226865D01*
G37*
D26*
G01X-0277610Y-0469310D02*
G01X-0877610D01*
G01Y0751690D01*
G01X-0277610D01*
G01Y-0469310D01*
D25*
X-0726610Y0388690D03*
M02*

