;           Gerber:: Drill Report             
;           =====================             
;    Unit                   : metric
;    Format                 : 3.4;    Co-ordinate data Mode  : Absolute Data mode
;+----------------------------------------+
;|  D R I L L   T O O L S   T A B L E     |
;+----------------------------------------+
;|    Drill    |    Tool    |    Drill    |
;|    Tool     |    Size    |    Count    |
;+----------------------------------------+
;|          T01|    0.600000|          201|
;+----------------------------------------+

M48

METRIC,000.0000
T01C0.600000
%
M71
G90
T01
X-0323610Y0056690
X-0359282Y0620764
X-0807282
X-0863282
X-0751282
X-0695282
X-0415282
X-0471282
X-0527282
X-0583282
X-0639282
X-0471282Y0732764
X-0359282Y0676764
X-0303282
X-0863282Y0732764
X-0807282
X-0303282Y0620764
X-0863282Y0676764
X-0807282
X-0751282
X-0695282
X-0527282Y0732764
X-0751282
X-0695282
X-0639282
X-0583282
X-0639282Y0676764
X-0583282
X-0527282
X-0471282
X-0415282
Y0732764
X-0359282
X-0303282
X-0798862Y0412983
X-0742862
X-0686862
X-0630862
X-0574862
X-0518862
X-0462862
X-0406862
X-0350862
X-0294862
X-0798862Y0468983
X-0742862
X-0686862
X-0630862
X-0574862
X-0518862
X-0462862
X-0406862
X-0350862
X-0294862
X-0798862Y0524983
X-0742862
X-0686862
X-0630862
X-0574862
X-0518862
X-0462862
X-0406862
X-0350862
X-0294862
X-0803362Y0299369
X-0747362
X-0691362
X-0635362
X-0579362
X-0523362
X-0467362
X-0411362
X-0355362
X-0299362
X-0803362Y0355369
X-0747362
X-0691362
X-0635362
X-0579362
X-0523362
X-0467362
X-0411362
X-0355362
X-0299362
X-0803453Y0260180
X-0747453
X-0691453
X-0635453
X-0579453
X-0523453
X-0467453
X-0411453
X-0355453
X-0804150Y0072065
X-0748150
X-0692150
X-0636150
X-0580150
X-0524150
X-0468150
X-0412150
X-0356150
X-0804150Y0128065
X-0748150
X-0692150
X-0636150
X-0580150
X-0524150
X-0468150
X-0412150
X-0356150
X-0804150Y0184065
X-0748150
X-0692150
X-0636150
X-0580150
X-0524150
X-0468150
X-0412150
X-0356150
X-0795734Y-0180490
X-0739734
X-0683734
X-0627734
X-0571734
X-0515734
X-0459734
X-0403734
X-0347734
X-0795734Y-0124490
X-0739734
X-0683734
X-0627734
X-0571734
X-0515734
X-0459734
X-0403734
X-0347734
X-0795734Y-0068490
X-0739734
X-0683734
X-0627734
X-0571734
X-0515734
X-0459734
X-0403734
X-0347734
X-0795605Y-0016716
X-0739605
X-0683605
X-0627605
X-0572062Y-0014185
X-0516062
X-0460062
X-0404062
X-0801512Y-0251667
X-0745512
X-0689512
X-0633512
X-0544097Y-0252523
X-0488097
X-0432097
X-0376097
X-0855437Y-0454681
X-0799437
X-0743437
X-0687437
X-0855437Y-0398681
X-0799437
X-0743437
X-0687437
X-0631437
X-0855437Y-0342681
X-0799437
X-0743437
X-0687437
X-0631437
X-0855437Y-0286681
X-0799437
X-0743437
X-0687437
X-0631437
X-0489554Y-0454079
X-0433554
X-0377554
X-0321554
X-0545554Y-0398079
X-0489554
X-0433554
X-0377554
X-0321554
X-0545554Y-0342079
X-0489554
X-0433554
X-0377554
X-0321554
X-0545554Y-0286079
X-0489554
X-0433554
X-0377554
X-0321554

M30
