G04 ===== Begin FILE IDENTIFICATION =====*
G04 File Format:  Gerber RS274X*
G04 ===== End FILE IDENTIFICATION =====*
%FSDAX34Y34*%
%MOMM*%
%SFA1.0000B1.0000*%
%OFA0.0B0.0*%
%ADD14R,30.520000X0.635000*%
%ADD15R,23.150000X0.635000*%
%ADD16R,60.000000X15.047500*%
%ADD17R,60.000000X0.635000*%
%ADD18R,36.350000X0.635000*%
%ADD19R,0.635000X5.900000*%
%ADD20R,0.635000X0.900000*%
%ADD21R,0.635000X25.000000*%
%ADD22R,29.250000X0.635000*%
%ADD23R,28.932500X24.482500*%
%ADD24R,28.432500X24.482500*%
%ADD25R,30.000000X0.635000*%
%ADD26C,0.025000*%
%LNcond*%
%IPPOS*%
%LPD*%
G75*
D14*
X-0506000Y0069413D03*
D15*
X-0541600Y0317588D03*
D16*
X-0356600Y0406001D03*
D17*
X-0355600Y0494413D03*
D18*
X-0240100Y0317588D03*
D19*
X-0380850Y0268088D03*
D20*
Y0306088D03*
D21*
X-0359100Y-0062587D03*
D22*
X-0205850Y0069413D03*
D23*
X-0201262Y-0066175D03*
G36*
G01X-0367675Y0304413D02*
G01Y0228588D01*
G01X-0394025D01*
G01Y0304413D01*
G01X-0656600D01*
G01Y0082588D01*
G01X-0056600D01*
G01Y0304413D01*
G01X-0367675D01*
G37*
D24*
X-0514437Y-0066175D03*
D25*
X-0505600Y0669413D03*
Y0831413D03*
G36*
G01X-0656600Y0507588D02*
G01X-0056600D01*
G01Y1032413D01*
G01X-0656600D01*
G01Y0844588D01*
G01X-0345600D01*
G01Y0818238D01*
G01X-0656600D01*
G01Y0682588D01*
G01X-0345600D01*
G01Y0656238D01*
G01X-0656600D01*
G01Y0507588D01*
G37*
D26*
G01X-0056600Y-0188587D02*
G01X-0656600D01*

G01Y1032413D01*

G01X-0056600D01*

G01Y-0188587D01*
M02*

