G04 ===== Begin FILE IDENTIFICATION =====*
G04 File Format:  Gerber RS274X*
G04 ===== End FILE IDENTIFICATION =====*
%FSDAX34Y34*%
%MOMM*%
%SFA1.0000B1.0000*%
%OFA0.0B0.0*%
%ADD14C,0.600000*%
%ADD15C,0.025000*%
%LNhole*%
%IPPOS*%
%LPD*%
G75*
D14*
X-0071262Y-0185587D03*
X-0090262Y-0184587D03*
X-0112262Y-0183587D03*
X-0132262Y-0182587D03*
X-0152262Y-0181587D03*
X-0175262D03*
X-0179600Y-0177587D03*
X-0196600D03*
X-0198262Y-0182587D03*
X-0215600Y-0176587D03*
X-0300600Y-0173587D03*
X-0237600Y-0175587D03*
X-0257600Y-0174587D03*
X-0277600Y-0173587D03*
X-0323600Y-0174587D03*
X-0526600D03*
X-0528600Y-0176587D03*
X-0568600Y-0172587D03*
X-0634600D03*
X-0611600Y-0171587D03*
X-0548600Y-0173587D03*
X-0588600Y-0171587D03*
X-0505600Y-0175587D03*
X-0507600D03*
X-0482600D03*
X-0490600D03*
X-0442600Y-0177587D03*
X-0462600Y-0176587D03*
X-0420600Y-0178587D03*
X-0384600Y-0179587D03*
X-0401600D03*
X-0146600Y-0164587D03*
X-0189600Y-0163587D03*
X-0166600D03*
X-0324600Y-0161587D03*
X-0258600D03*
X-0238600Y-0162587D03*
X-0216600Y-0163587D03*
X-0197600Y-0164587D03*
X-0212600D03*
X-0180600D03*
X-0505600Y-0163587D03*
X-0550600Y-0162587D03*
X-0528600Y-0164587D03*
X-0636600Y-0161587D03*
X-0570600D03*
X-0528600Y-0163587D03*
X-0509600Y-0164587D03*
X-0482600Y-0163587D03*
X-0492600Y-0164587D03*
X-0462600D03*
X-0104600Y-0153587D03*
X-0126600Y-0152587D03*
X-0146600Y-0151587D03*
X-0189600Y-0150587D03*
X-0238600D03*
X-0216600Y-0151587D03*
X-0197600Y-0152587D03*
X-0212600Y-0151587D03*
X-0180600Y-0152587D03*
X-0166600Y-0150587D03*
X-0505600Y-0151587D03*
X-0550600Y-0152587D03*
X-0528600D03*
Y-0153587D03*
X-0636600Y-0151587D03*
X-0613600Y-0150587D03*
X-0590600D03*
X-0570600Y-0151587D03*
X-0482600D03*
X-0442600Y-0153587D03*
X-0462600Y-0152587D03*
X-0085600Y-0154587D03*
X-0068600D03*
X-0301600Y-0160587D03*
X-0278600D03*
X-0401600Y-0155587D03*
X-0384600D03*
X-0420600Y-0154587D03*
X-0492600D03*
X-0509600D03*
X-0590600Y-0160587D03*
X-0613600D03*
X-0104600Y-0166587D03*
X-0085600Y-0167587D03*
X-0068600D03*
X-0126600Y-0165587D03*
X-0401600Y-0167587D03*
X-0384600D03*
X-0420600Y-0166587D03*
X-0442600Y-0165587D03*
X-0104600Y-0114587D03*
Y-0126587D03*
Y-0141587D03*
X-0068600Y-0142587D03*
Y-0127587D03*
Y-0115587D03*
X-0085600D03*
Y-0127587D03*
Y-0142587D03*
X-0180600Y-0130587D03*
Y-0115587D03*
X-0166600Y-0138587D03*
Y-0123587D03*
Y-0111587D03*
X-0146600Y-0112587D03*
Y-0124587D03*
Y-0139587D03*
X-0126600Y-0140587D03*
Y-0125587D03*
Y-0113587D03*
X-0189600Y-0138587D03*
Y-0123587D03*
Y-0111587D03*
X-0192600Y-0107587D03*
X-0197600Y-0130587D03*
Y-0115587D03*
X-0216600Y-0114587D03*
Y-0129587D03*
X-0238600Y-0113587D03*
Y-0128587D03*
X-0212600Y-0139587D03*
Y-0124587D03*
Y-0112587D03*
X-0301600Y-0126587D03*
Y-0111587D03*
X-0278600D03*
Y-0126587D03*
X-0324600Y-0127587D03*
Y-0112587D03*
X-0258600D03*
Y-0127587D03*
X-0439600Y-0130587D03*
X-0462600Y-0142587D03*
X-0459600Y-0129587D03*
X-0417600Y-0131587D03*
X-0398600Y-0132587D03*
X-0381600D03*
X-0509600Y-0137587D03*
X-0502600Y-0128587D03*
X-0505600Y-0141587D03*
X-0550600Y-0135587D03*
X-0525600Y-0129587D03*
X-0528600Y-0136587D03*
Y-0142587D03*
X-0509600Y-0127587D03*
X-0482600Y-0141587D03*
X-0492600Y-0127587D03*
Y-0137587D03*
X-0479600Y-0128587D03*
X-0437600Y-0107587D03*
Y-0117587D03*
X-0379600Y-0109587D03*
Y-0119587D03*
X-0396600Y-0109587D03*
Y-0119587D03*
X-0415600Y-0118587D03*
X-0457600Y-0106587D03*
Y-0116587D03*
X-0477600Y-0105587D03*
Y-0115587D03*
X-0415600Y-0108587D03*
X-0500600Y-0105587D03*
Y-0115587D03*
X-0550600Y-0108587D03*
Y-0117587D03*
X-0528600Y-0118587D03*
Y-0109587D03*
X-0523600Y-0106587D03*
Y-0116587D03*
X-0509600Y-0119587D03*
Y-0110587D03*
X-0492600D03*
Y-0119587D03*
X-0528600Y-0126587D03*
X-0550600Y-0125587D03*
X-0570600Y-0116587D03*
Y-0107587D03*
X-0590600Y-0141587D03*
Y-0106587D03*
Y-0115587D03*
Y-0123587D03*
Y-0133587D03*
X-0570600Y-0124587D03*
Y-0134587D03*
Y-0142587D03*
X-0613600Y-0106587D03*
Y-0115587D03*
Y-0123587D03*
Y-0133587D03*
Y-0141587D03*
X-0636600Y-0107587D03*
Y-0116587D03*
Y-0124587D03*
Y-0134587D03*
Y-0142587D03*
X-0124600Y-0146587D03*
X-0102600Y-0147587D03*
X-0083600Y-0148587D03*
X-0066600D03*
X-0278600D03*
X-0258600Y-0149587D03*
X-0210600Y-0145587D03*
X-0187600Y-0144587D03*
X-0164600D03*
X-0144600Y-0145587D03*
X-0528600Y-0144587D03*
X-0550600Y-0143587D03*
X-0509600Y-0145587D03*
X-0492600D03*
X-0442600Y-0143587D03*
X-0420600Y-0144587D03*
X-0384600Y-0145587D03*
X-0401600D03*
X-0324600Y-0149587D03*
X-0301600Y-0148587D03*
X-0082925Y-0060175D03*
D03*
X-0065925D03*
X-0063600Y-0033587D03*
X-0080600D03*
X-0065925Y-0060175D03*
X-0061600Y-0022587D03*
X-0078600D03*
X-0123925Y-0058175D03*
X-0126600Y-0096587D03*
X-0115600Y-0078587D03*
X-0104600Y-0097587D03*
X-0119600Y-0020587D03*
X-0123925Y-0058175D03*
X-0121600Y-0031587D03*
X-0156600Y-0076587D03*
X-0143925Y-0057175D03*
X-0141600Y-0030587D03*
X-0143925Y-0057175D03*
X-0146600Y-0095587D03*
X-0161600Y-0029587D03*
X-0163925Y-0056175D03*
X-0159600Y-0018587D03*
X-0163925Y-0056175D03*
X-0166600Y-0094587D03*
X-0139600Y-0019587D03*
X-0134600Y-0077587D03*
X-0101925Y-0059175D03*
D03*
X-0097600Y-0021587D03*
X-0099600Y-0032587D03*
X-0098600Y-0078587D03*
X-0238600Y-0096587D03*
X-0216600Y-0097587D03*
X-0197600Y-0083587D03*
X-0212600Y-0095587D03*
X-0192600Y-0090587D03*
X-0189600Y-0094587D03*
X-0191600Y-0071587D03*
X-0215925Y-0063175D03*
D03*
X-0219600Y-0074587D03*
X-0242600Y-0075587D03*
X-0234925Y-0062175D03*
D03*
X-0196600Y-0074587D03*
X-0198925Y-0063175D03*
D03*
X-0216600Y-0082587D03*
X-0238600Y-0081587D03*
X-0258600Y-0095587D03*
X-0276925Y-0060175D03*
X-0278600Y-0079587D03*
Y-0094587D03*
X-0276925Y-0060175D03*
X-0256925Y-0061175D03*
D03*
X-0258600Y-0080587D03*
X-0225600Y-0017587D03*
X-0226600Y-0031587D03*
X-0190600Y-0049587D03*
X-0189600Y-0029587D03*
X-0190600Y-0032587D03*
X-0189600Y-0018587D03*
X-0184600Y-0029587D03*
X-0182600Y-0018587D03*
X-0207600Y-0032587D03*
Y-0030587D03*
X-0206600Y-0018587D03*
X-0205600Y-0019587D03*
X-0268600Y-0029587D03*
X-0267600Y-0015587D03*
X-0247600Y-0016587D03*
X-0248600Y-0030587D03*
X-0186925Y-0056175D03*
D03*
X-0209925Y-0057175D03*
D03*
X-0301600Y-0094587D03*
Y-0079587D03*
X-0296925Y-0059175D03*
D03*
X-0324600Y-0095587D03*
Y-0080587D03*
X-0311600Y-0028587D03*
X-0319925Y-0059175D03*
D03*
X-0288600Y-0028587D03*
X-0180600Y-0083587D03*
X-0176600Y-0075587D03*
X-0437600Y-0095587D03*
X-0379600Y-0097587D03*
Y-0082587D03*
X-0396600Y-0097587D03*
Y-0082587D03*
X-0415600Y-0096587D03*
X-0477600Y-0093587D03*
X-0457600Y-0094587D03*
X-0492600Y-0085587D03*
X-0523600Y-0094587D03*
X-0528600Y-0084587D03*
X-0570600Y-0097587D03*
Y-0082587D03*
X-0550600Y-0083587D03*
X-0509600Y-0085587D03*
X-0500600Y-0093587D03*
X-0415600Y-0066587D03*
X-0396600Y-0067587D03*
X-0379600D03*
X-0437600Y-0065587D03*
X-0342925Y-0060175D03*
D03*
X-0492600Y-0060587D03*
X-0500600Y-0063587D03*
X-0509600Y-0060587D03*
Y-0073587D03*
X-0550600Y-0071587D03*
X-0570600Y-0070587D03*
X-0523600Y-0064587D03*
X-0528600Y-0072587D03*
X-0492600Y-0073587D03*
X-0477600Y-0063587D03*
X-0457600Y-0064587D03*
X-0437600Y-0080587D03*
X-0415600Y-0081587D03*
X-0477600Y-0078587D03*
X-0457600Y-0079587D03*
X-0523600D03*
X-0500600Y-0078587D03*
X-0590600Y-0096587D03*
Y-0081587D03*
Y-0069587D03*
X-0613600Y-0096587D03*
X-0636600Y-0070587D03*
Y-0082587D03*
Y-0097587D03*
X-0613600Y-0069587D03*
Y-0081587D03*
X-0437600Y-0030587D03*
Y-0045587D03*
X-0379600Y-0047587D03*
Y-0032587D03*
X-0396600Y-0047587D03*
Y-0032587D03*
X-0457600Y-0029587D03*
Y-0044587D03*
X-0477600Y-0028587D03*
Y-0043587D03*
X-0415600Y-0031587D03*
Y-0046587D03*
X-0510600Y-0037587D03*
X-0505600Y-0020587D03*
X-0500600Y-0043587D03*
Y-0028587D03*
X-0546600Y-0018587D03*
X-0551600Y-0035587D03*
X-0524600Y-0019587D03*
X-0529600Y-0036587D03*
X-0523600Y-0029587D03*
Y-0044587D03*
X-0488600Y-0020587D03*
X-0493600Y-0037587D03*
X-0591600Y-0033587D03*
X-0637600Y-0034587D03*
X-0632600Y-0017587D03*
X-0609600Y-0016587D03*
X-0614600Y-0033587D03*
X-0586600Y-0016587D03*
X-0571600Y-0034587D03*
X-0566600Y-0017587D03*
X-0550600Y-0058587D03*
X-0528600Y-0059587D03*
X-0570600Y-0057587D03*
X-0613600Y-0056587D03*
X-0636600Y-0057587D03*
X-0590600Y-0056587D03*
X-0334600Y-0029587D03*
X-0333600Y-0015587D03*
X-0085600Y-0098587D03*
X-0068600D03*
X-0180600D03*
X-0197600D03*
X-0492600Y-0100587D03*
X-0509600D03*
X-0550600Y-0098587D03*
X-0528600Y-0099587D03*
X-0060600Y0024413D03*
X-0077600D03*
X-0060600Y0039413D03*
X-0077600D03*
X-0073600Y0091413D03*
X-0078600Y0018413D03*
X-0061600D03*
X-0078600Y-0000587D03*
X-0061600D03*
X-0097600Y0019413D03*
X-0096600Y0025413D03*
Y0040413D03*
X-0090600Y0091413D03*
X-0097600Y0000413D03*
X-0158600Y0028413D03*
Y0043413D03*
X-0119600Y0001413D03*
Y0020413D03*
X-0109600Y0092413D03*
X-0118600Y0041413D03*
Y0026413D03*
X-0139600Y0021413D03*
X-0159600Y0022413D03*
Y0003413D03*
X-0171600Y0095413D03*
X-0151600Y0094413D03*
X-0131600Y0093413D03*
X-0138600Y0042413D03*
Y0027413D03*
X-0139600Y0002413D03*
X-0226600Y0040413D03*
X-0225600Y0017413D03*
Y0002413D03*
X-0188600Y0013413D03*
X-0189600Y0036413D03*
Y0001413D03*
X-0204600Y0042413D03*
Y0027413D03*
X-0205600Y0021413D03*
Y0002413D03*
X-0206600Y0001413D03*
Y0016413D03*
X-0207600Y0039413D03*
X-0190600D03*
X-0189600Y0016413D03*
X-0287600Y0020413D03*
Y0005413D03*
X-0267600Y0004413D03*
Y0019413D03*
X-0268600Y0042413D03*
X-0247600Y0003413D03*
Y0018413D03*
X-0248600Y0041413D03*
X-0198600Y0092413D03*
X-0194600Y0095413D03*
X-0279600Y0096413D03*
X-0259600Y0095413D03*
X-0239600Y0094413D03*
X-0217600Y0093413D03*
Y0094413D03*
X-0302600Y0096413D03*
X-0325600Y0095413D03*
X-0310600Y0020413D03*
X-0311600Y0043413D03*
X-0310600Y0005413D03*
X-0333600Y0004413D03*
Y0019413D03*
X-0334600Y0042413D03*
X-0288600Y0043413D03*
X-0181600Y0092413D03*
X-0182600Y0003413D03*
Y0022413D03*
X-0181600Y0028413D03*
Y0043413D03*
X-0359600Y0093413D03*
X-0400600Y0095413D03*
X-0412600Y0032413D03*
X-0414600Y0015413D03*
X-0415600Y-0000587D03*
X-0393600Y0031413D03*
X-0395600Y0014413D03*
X-0396600Y-0001587D03*
X-0376600Y0031413D03*
X-0378600Y0014413D03*
X-0379600Y-0001587D03*
X-0378600Y0094413D03*
X-0434600Y0033413D03*
X-0436600Y0016413D03*
X-0437600Y0000413D03*
Y-0008587D03*
X-0463600Y0097413D03*
X-0440600D03*
X-0454600Y0034413D03*
X-0456600Y0017413D03*
X-0457600Y0001413D03*
Y-0007587D03*
X-0420600Y0096413D03*
X-0477600Y-0006587D03*
Y0002413D03*
X-0497600Y-0000587D03*
Y0035413D03*
X-0486600Y0096413D03*
X-0503600D03*
X-0498600Y0039413D03*
X-0499600Y0018413D03*
X-0500600Y0002413D03*
Y-0006587D03*
X-0497600Y0018413D03*
X-0476600D03*
X-0474600Y0035413D03*
X-0520600Y0034413D03*
X-0522600Y0017413D03*
X-0533600Y0000413D03*
Y0019413D03*
X-0523600Y0001413D03*
Y-0007587D03*
X-0520600Y0096413D03*
X-0539600Y0097413D03*
X-0534600Y0040413D03*
X-0515600Y0039413D03*
X-0514600Y-0000587D03*
Y0018413D03*
X-0575600Y0002413D03*
Y0021413D03*
X-0595600Y0022413D03*
Y0003413D03*
X-0596600Y0043413D03*
X-0581600Y0099413D03*
X-0576600Y0042413D03*
X-0561600Y0098413D03*
X-0555600Y0001413D03*
Y0020413D03*
X-0556600Y0041413D03*
X-0641600Y0021413D03*
Y0002413D03*
X-0624600Y0100413D03*
X-0647600Y0099413D03*
X-0642600Y0042413D03*
X-0618600Y0022413D03*
Y0003413D03*
X-0619600Y0043413D03*
X-0601600Y0100413D03*
X-0342600Y0093413D03*
X-0188600Y-0009587D03*
X-0287600Y-0014587D03*
X-0310600D03*
X-0379600Y-0010587D03*
X-0396600D03*
X-0415600Y-0009587D03*
X-0113600Y0121413D03*
X-0087600Y0150413D03*
X-0088600Y0173413D03*
X-0094600Y0120413D03*
X-0077600D03*
X-0070600Y0150413D03*
X-0071600Y0173413D03*
X-0104600Y0150413D03*
X-0105600Y0173413D03*
X-0155600Y0123413D03*
X-0169600Y0150413D03*
X-0170600Y0173413D03*
X-0175600Y0124413D03*
X-0181600Y0150413D03*
X-0150600Y0173413D03*
X-0149600Y0150413D03*
X-0135600Y0122413D03*
X-0124600Y0150413D03*
X-0125600Y0173413D03*
X-0103600Y0236413D03*
X-0088600Y0196413D03*
X-0087600Y0216413D03*
X-0071600Y0196413D03*
X-0070600Y0216413D03*
X-0069600Y0236413D03*
X-0086600D03*
X-0105600Y0196413D03*
X-0104600Y0216413D03*
X-0150600Y0196413D03*
X-0149600Y0216413D03*
X-0170600Y0196413D03*
X-0169600Y0216413D03*
X-0168600Y0236413D03*
X-0181600Y0216413D03*
X-0180600Y0236413D03*
X-0148600D03*
X-0123600D03*
X-0124600Y0216413D03*
X-0125600Y0196413D03*
X-0200600Y0123413D03*
X-0198600Y0124413D03*
X-0219600D03*
X-0221600Y0123413D03*
X-0304600Y0127413D03*
X-0261600Y0126413D03*
X-0327600Y0129413D03*
Y0126413D03*
X-0331600Y0110413D03*
X-0308600Y0128413D03*
X-0281600Y0127413D03*
X-0291600Y0128413D03*
X-0241600Y0125413D03*
X-0201600Y0150413D03*
X-0222600Y0168413D03*
X-0221600Y0145413D03*
X-0244600Y0168413D03*
X-0243600Y0145413D03*
X-0263600Y0147413D03*
X-0277600D03*
X-0328600Y0163413D03*
X-0335600Y0149413D03*
X-0318600D03*
X-0313600Y0148413D03*
X-0309600Y0162413D03*
X-0294600Y0147413D03*
X-0286600Y0149413D03*
X-0299600D03*
X-0292600Y0162413D03*
X-0202600Y0196413D03*
X-0222600Y0191413D03*
X-0300600Y0195413D03*
X-0319600D03*
X-0332600Y0186413D03*
X-0313600Y0185413D03*
X-0287600Y0195413D03*
X-0296600Y0185413D03*
X-0244600Y0191413D03*
X-0264600Y0193413D03*
X-0201600Y0216413D03*
X-0200600Y0236413D03*
X-0220600Y0231413D03*
X-0242600D03*
X-0318600Y0215413D03*
X-0317600Y0235413D03*
X-0285600D03*
X-0286600Y0215413D03*
X-0299600D03*
X-0298600Y0235413D03*
X-0262600Y0233413D03*
X-0221600Y0211413D03*
X-0303600Y0208413D03*
X-0243600Y0211413D03*
X-0322600Y0209413D03*
X-0286600Y0208413D03*
X-0263600Y0213413D03*
X-0202600Y0173413D03*
X-0300600Y0172413D03*
X-0264600Y0170413D03*
X-0287600Y0172413D03*
X-0319600D03*
X-0183600Y0123413D03*
X-0182600Y0173413D03*
Y0196413D03*
X-0350600Y0164413D03*
X-0349600Y0130413D03*
X-0354600Y0110413D03*
X-0360600Y0126413D03*
X-0361600Y0149413D03*
X-0355600Y0150413D03*
X-0390600Y0166413D03*
X-0389600Y0132413D03*
X-0398600Y0151413D03*
X-0369600Y0131413D03*
X-0370600Y0165413D03*
X-0375600Y0151413D03*
X-0379600Y0127413D03*
X-0401600Y0128413D03*
X-0421600Y0129413D03*
Y0150413D03*
X-0412600D03*
X-0413600Y0166413D03*
X-0412600Y0132413D03*
X-0432600Y0147413D03*
X-0441600Y0130413D03*
X-0435600Y0131413D03*
X-0436600Y0165413D03*
X-0457600Y0147413D03*
X-0471600Y0110413D03*
X-0494600Y0149413D03*
X-0491600Y0111413D03*
X-0487600Y0129413D03*
X-0502600Y0127413D03*
X-0464600Y0130413D03*
X-0477600Y0149413D03*
X-0514600Y0111413D03*
X-0538600Y0128413D03*
X-0532600Y0147413D03*
X-0558600Y0110413D03*
X-0578600Y0111413D03*
X-0560600Y0129413D03*
X-0580600Y0130413D03*
X-0572600Y0149413D03*
X-0519600Y0127413D03*
X-0537600Y0110413D03*
X-0550600Y0150413D03*
X-0512600Y0147413D03*
X-0600600Y0131413D03*
X-0598600Y0112413D03*
X-0597600Y0149413D03*
X-0644600Y0111413D03*
X-0646600Y0130413D03*
X-0644600Y0168413D03*
X-0643600Y0145413D03*
X-0623600Y0131413D03*
X-0621600Y0112413D03*
Y0150413D03*
X-0364600Y0211413D03*
X-0362600Y0195413D03*
X-0374600Y0188413D03*
X-0384600Y0212413D03*
X-0354600Y0187413D03*
X-0361600Y0215413D03*
X-0360600Y0235413D03*
X-0344600Y0210413D03*
X-0411600Y0236413D03*
X-0412600Y0216413D03*
X-0413600Y0196413D03*
X-0431600Y0233413D03*
X-0432600Y0213413D03*
X-0433600Y0193413D03*
X-0430600Y0211413D03*
X-0440600Y0188413D03*
X-0407600Y0212413D03*
X-0417600Y0189413D03*
X-0394600D03*
X-0478600Y0195413D03*
X-0458600Y0193413D03*
X-0457600Y0213413D03*
X-0493600Y0235413D03*
X-0494600Y0215413D03*
X-0495600Y0195413D03*
X-0477600Y0215413D03*
X-0476600Y0235413D03*
X-0456600Y0233413D03*
X-0513600Y0193413D03*
X-0512600Y0213413D03*
X-0511600Y0233413D03*
X-0532600Y0213413D03*
X-0549600Y0236413D03*
X-0550600Y0216413D03*
X-0571600Y0235413D03*
X-0531600Y0233413D03*
X-0573600Y0195413D03*
X-0551600Y0196413D03*
X-0533600Y0193413D03*
X-0572600Y0215413D03*
X-0598600Y0195413D03*
X-0597600Y0215413D03*
X-0642600Y0231413D03*
X-0643600Y0211413D03*
X-0644600Y0191413D03*
X-0622600Y0196413D03*
X-0596600Y0235413D03*
X-0620600Y0236413D03*
X-0621600Y0216413D03*
X-0362600Y0172413D03*
X-0513600Y0170413D03*
X-0413600Y0173413D03*
X-0433600Y0170413D03*
X-0478600Y0172413D03*
X-0458600Y0170413D03*
X-0495600Y0172413D03*
X-0573600D03*
X-0551600Y0173413D03*
X-0533600Y0170413D03*
X-0622600Y0173413D03*
X-0598600Y0172413D03*
X-0339600Y0235413D03*
X-0340600Y0215413D03*
X-0341600Y0195413D03*
Y0172413D03*
X-0340600Y0149413D03*
X-0343600Y0126413D03*
X-0153600Y0107413D03*
X-0075600Y0104413D03*
X-0092600D03*
X-0111600Y0105413D03*
X-0133600Y0106413D03*
X-0233600D03*
X-0250600D03*
X-0269600Y0107413D03*
X-0219600D03*
X-0196600Y0108413D03*
X-0173600D03*
X-0517600D03*
X-0536600Y0109413D03*
X-0500600Y0108413D03*
X-0451600Y0109413D03*
X-0429600Y0108413D03*
X-0410600Y0107413D03*
X-0393600D03*
X-0377600Y0109413D03*
X-0311600D03*
X-0291600Y0108413D03*
X-0101600Y0294413D03*
X-0067600D03*
Y0277413D03*
X-0068600Y0258413D03*
X-0085600D03*
X-0084600Y0277413D03*
Y0294413D03*
X-0102600Y0258413D03*
X-0101600Y0277413D03*
X-0178600Y0294413D03*
Y0277413D03*
X-0179600Y0258413D03*
X-0167600D03*
X-0166600Y0277413D03*
Y0294413D03*
X-0146600D03*
Y0277413D03*
X-0147600Y0258413D03*
X-0121600Y0294413D03*
Y0277413D03*
X-0122600Y0258413D03*
X-0199600D03*
X-0198600Y0277413D03*
Y0294413D03*
X-0219600Y0253413D03*
X-0218600Y0272413D03*
Y0289413D03*
X-0260600Y0291413D03*
X-0241600Y0253413D03*
X-0261600Y0255413D03*
X-0283600Y0293413D03*
Y0276413D03*
X-0284600Y0257413D03*
X-0240600Y0289413D03*
Y0272413D03*
X-0260600Y0274413D03*
X-0296600Y0276413D03*
Y0293413D03*
X-0297600Y0257413D03*
X-0315600Y0293413D03*
Y0276413D03*
X-0316600Y0257413D03*
X-0337600Y0293413D03*
Y0276413D03*
X-0338600Y0257413D03*
X-0358600Y0293413D03*
X-0410600Y0258413D03*
X-0409600Y0277413D03*
Y0294413D03*
X-0359600Y0257413D03*
X-0358600Y0276413D03*
X-0454600Y0274413D03*
X-0474600Y0293413D03*
Y0276413D03*
X-0492600Y0257413D03*
X-0491600Y0293413D03*
Y0276413D03*
X-0455600Y0255413D03*
X-0454600Y0291413D03*
X-0475600Y0257413D03*
X-0429600Y0291413D03*
Y0274413D03*
X-0430600Y0255413D03*
X-0547600Y0294413D03*
X-0569600Y0293413D03*
X-0547600Y0277413D03*
X-0529600Y0274413D03*
X-0530600Y0255413D03*
X-0570600Y0257413D03*
X-0569600Y0276413D03*
X-0548600Y0258413D03*
X-0529600Y0291413D03*
X-0510600Y0255413D03*
X-0509600Y0274413D03*
Y0291413D03*
X-0619600Y0258413D03*
X-0641600Y0253413D03*
X-0640600Y0272413D03*
Y0289413D03*
X-0595600Y0257413D03*
X-0594600Y0276413D03*
Y0293413D03*
X-0618600Y0294413D03*
Y0277413D03*
X-0120600Y0354413D03*
X-0181600Y0339413D03*
X-0182600Y0359413D03*
X-0164600Y0350413D03*
X-0143600Y0354413D03*
D15*
G01X-0087850Y0320763D02*
G01Y0314413D01*
D14*
X-0069600Y0335413D03*
Y0352413D03*
X-0084850Y0346763D03*
X-0102600Y0338413D03*
X-0227600D03*
X-0228600Y0358413D03*
X-0308600Y0342413D03*
X-0325600D03*
X-0289600Y0341413D03*
X-0247600Y0339413D03*
X-0267600Y0340413D03*
X-0248600Y0359413D03*
X-0204600Y0338413D03*
X-0205600Y0358413D03*
X-0366600Y0341413D03*
Y0356413D03*
X-0389600Y0341413D03*
X-0409600Y0342413D03*
X-0429600Y0343413D03*
Y0358413D03*
X-0451600Y0359413D03*
Y0344413D03*
X-0470600Y0345413D03*
X-0487600D03*
X-0503600D03*
X-0409600Y0357413D03*
X-0389600Y0356413D03*
X-0526600Y0344413D03*
X-0549600D03*
X-0569600Y0345413D03*
X-0647600Y0348413D03*
X-0630600D03*
X-0611600Y0347413D03*
X-0589600Y0346413D03*
X-0343600Y0357413D03*
Y0342413D03*
X-0068600Y0371413D03*
X-0067600Y0393413D03*
X-0066600Y0413413D03*
X-0084850Y0369763D03*
X-0083850Y0389763D03*
X-0082850Y0409763D03*
X-0103600Y0384413D03*
X-0102600Y0404413D03*
X-0120600Y0377413D03*
X-0119600Y0397413D03*
X-0180600Y0388413D03*
X-0181600Y0408413D03*
X-0162600Y0413413D03*
X-0163600Y0393413D03*
X-0164600Y0373413D03*
X-0142600Y0397413D03*
X-0143600Y0377413D03*
X-0228600Y0379413D03*
X-0205600D03*
X-0198600Y0408413D03*
X-0197600Y0388413D03*
X-0248600Y0380413D03*
X-0259600Y0411413D03*
X-0239600Y0410413D03*
X-0258600Y0391413D03*
X-0238600Y0390413D03*
X-0217600Y0409413D03*
X-0216600Y0389413D03*
X-0302600Y0412413D03*
X-0290600Y0382413D03*
X-0309600Y0383413D03*
X-0326600D03*
X-0325600Y0411413D03*
X-0324600Y0391413D03*
X-0278600Y0392413D03*
X-0279600Y0412413D03*
X-0301600Y0392413D03*
X-0268600Y0381413D03*
X-0182600Y0380413D03*
X-0101600Y0424413D03*
X-0081850Y0431763D03*
X-0065600Y0433413D03*
X-0176600Y0441413D03*
X-0180600Y0426413D03*
X-0161600Y0435413D03*
X-0140600Y0439413D03*
X-0117600D03*
X-0226600Y0425413D03*
X-0288600Y0428413D03*
X-0266600Y0427413D03*
X-0246600Y0426413D03*
X-0284600Y0443413D03*
X-0262600Y0442413D03*
X-0242600Y0441413D03*
X-0307600Y0429413D03*
X-0324600D03*
X-0222600Y0440413D03*
X-0199600D03*
X-0203600Y0425413D03*
X-0080850Y0467763D03*
Y0450763D03*
X-0065600Y0456413D03*
X-0099600Y0465413D03*
X-0116600Y0458413D03*
X-0139600D03*
X-0160600Y0471413D03*
Y0454413D03*
X-0175600Y0459413D03*
X-0198600Y0458413D03*
X-0221600D03*
X-0302600Y0462413D03*
X-0319600D03*
X-0261600Y0460413D03*
X-0241600Y0459413D03*
X-0283600Y0461413D03*
X-0100600Y0446413D03*
X-0303600Y0444413D03*
X-0320600D03*
X-0118600Y0417413D03*
X-0141600D03*
X-0365600Y0371413D03*
X-0367600Y0391413D03*
X-0364600Y0409413D03*
X-0344600Y0392413D03*
X-0390600Y0391413D03*
X-0387600Y0409413D03*
X-0388600Y0371413D03*
X-0407600Y0410413D03*
X-0452600Y0394413D03*
X-0449600Y0412413D03*
X-0450600Y0374413D03*
X-0428600Y0373413D03*
X-0427600Y0411413D03*
X-0430600Y0393413D03*
X-0408600Y0372413D03*
X-0410600Y0392413D03*
X-0471600Y0395413D03*
X-0468600Y0413413D03*
X-0485600D03*
X-0488600Y0395413D03*
X-0486600Y0375413D03*
X-0502600Y0399413D03*
X-0504600Y0420413D03*
X-0503600Y0380413D03*
X-0469600Y0375413D03*
X-0549600Y0379413D03*
X-0526600D03*
X-0568600Y0399413D03*
X-0548600Y0398413D03*
X-0525600D03*
X-0550600Y0419413D03*
X-0527600D03*
X-0569600Y0380413D03*
X-0570600Y0420413D03*
X-0612600Y0422413D03*
X-0610600Y0401413D03*
X-0611600Y0382413D03*
X-0647600Y0383413D03*
X-0646600Y0402413D03*
X-0630600Y0383413D03*
X-0629600Y0402413D03*
X-0590600Y0421413D03*
X-0588600Y0400413D03*
X-0589600Y0381413D03*
X-0365600Y0443413D03*
X-0363600Y0462413D03*
X-0388600Y0443413D03*
X-0386600Y0462413D03*
X-0450600Y0431413D03*
Y0446413D03*
X-0448600Y0465413D03*
X-0428600Y0430413D03*
Y0445413D03*
X-0426600Y0464413D03*
X-0408600Y0444413D03*
X-0406600Y0463413D03*
X-0469600Y0447413D03*
Y0432413D03*
X-0486600D03*
Y0447413D03*
X-0484600Y0466413D03*
X-0505600Y0436413D03*
X-0503600Y0451413D03*
X-0502600Y0467413D03*
X-0467600Y0466413D03*
X-0568600Y0467413D03*
X-0526600Y0450413D03*
X-0549600D03*
X-0569600Y0451413D03*
X-0528600Y0435413D03*
X-0551600D03*
X-0548600Y0466413D03*
X-0525600D03*
X-0571600Y0436413D03*
X-0610600Y0469413D03*
X-0613600Y0438413D03*
X-0630600Y0454413D03*
X-0629600Y0470413D03*
X-0649600Y0439413D03*
X-0646600Y0470413D03*
X-0647600Y0454413D03*
X-0632600Y0439413D03*
X-0611600Y0453413D03*
X-0591600Y0437413D03*
X-0588600Y0468413D03*
X-0589600Y0452413D03*
X-0365600Y0428413D03*
X-0388600D03*
X-0408600Y0429413D03*
X-0631600Y0423413D03*
X-0648600D03*
X-0342600Y0372413D03*
X-0341600Y0410413D03*
X-0340600Y0463413D03*
X-0342600Y0444413D03*
Y0429413D03*
X-0103600Y0361413D03*
X-0268600Y0360413D03*
X-0290600Y0361413D03*
X-0326600Y0362413D03*
X-0309600D03*
X-0470600Y0360413D03*
X-0487600D03*
X-0503600Y0362413D03*
X-0526600Y0361413D03*
X-0549600D03*
X-0569600Y0362413D03*
X-0589600Y0363413D03*
X-0611600Y0364413D03*
X-0630600Y0365413D03*
X-0647600D03*
X-0158600Y0552413D03*
X-0119600Y0516413D03*
Y0533413D03*
X-0078600Y0532413D03*
X-0077600Y0551413D03*
X-0078600Y0515413D03*
X-0099600Y0482413D03*
X-0098600Y0515413D03*
X-0097600Y0551413D03*
X-0098600Y0532413D03*
X-0118600Y0552413D03*
X-0138600Y0517413D03*
Y0534413D03*
X-0137600Y0553413D03*
X-0159600Y0516413D03*
Y0533413D03*
X-0224600Y0516413D03*
X-0223600Y0552413D03*
X-0224600Y0533413D03*
X-0178600Y0517413D03*
X-0199600Y0553413D03*
X-0200600Y0534413D03*
Y0517413D03*
X-0178600Y0534413D03*
X-0177600Y0553413D03*
X-0267600Y0532413D03*
X-0266600Y0551413D03*
X-0291600Y0552413D03*
X-0292600Y0533413D03*
X-0312600Y0551413D03*
X-0313600Y0532413D03*
Y0515413D03*
X-0267600D03*
X-0292600Y0516413D03*
X-0247600Y0532413D03*
X-0246600Y0551413D03*
X-0247600Y0515413D03*
X-0070600Y0573413D03*
X-0090600D03*
X-0111600Y0574413D03*
X-0130600Y0575413D03*
X-0151600Y0574413D03*
X-0305600Y0573413D03*
X-0284600Y0574413D03*
X-0333600Y0572413D03*
X-0259600Y0573413D03*
X-0239600D03*
X-0216600Y0574413D03*
X-0192600Y0575413D03*
X-0170600D03*
X-0067600Y0588413D03*
X-0087600D03*
X-0108600Y0589413D03*
X-0148600D03*
X-0302600Y0588413D03*
X-0281600Y0589413D03*
X-0236600Y0588413D03*
X-0256600D03*
X-0330600Y0587413D03*
X-0213600Y0589413D03*
X-0337600Y0580413D03*
X-0226600Y0612413D03*
X-0157600Y0614413D03*
X-0077600Y0612413D03*
X-0098600Y0613413D03*
X-0117600Y0614413D03*
X-0138600Y0613413D03*
X-0179600Y0614413D03*
X-0203600Y0613413D03*
X-0327600Y0604413D03*
X-0292600Y0612413D03*
X-0320600Y0611413D03*
X-0246600Y0612413D03*
X-0271600Y0613413D03*
X-0127600Y0590413D03*
X-0167600D03*
X-0189600D03*
X-0347600Y0516413D03*
X-0393600Y0515413D03*
X-0370600D03*
X-0413600Y0516413D03*
X-0433600Y0517413D03*
X-0455600Y0518413D03*
X-0474600Y0519413D03*
X-0589600Y0521413D03*
X-0611600Y0522413D03*
X-0647600Y0523413D03*
X-0630600D03*
X-0569600Y0520413D03*
X-0549600Y0519413D03*
X-0526600D03*
X-0503600Y0520413D03*
X-0491600Y0519413D03*
X-0348600Y0535413D03*
X-0434600Y0536413D03*
X-0394600Y0534413D03*
X-0371600D03*
X-0414600Y0535413D03*
X-0475600Y0538413D03*
X-0456600Y0537413D03*
X-0501600Y0536413D03*
X-0645600Y0539413D03*
X-0628600D03*
X-0609600Y0538413D03*
X-0524600Y0535413D03*
X-0547600D03*
X-0567600Y0536413D03*
X-0587600Y0537413D03*
X-0492600Y0538413D03*
X-0363600Y0564413D03*
X-0386600D03*
X-0406600Y0565413D03*
X-0474600Y0555413D03*
X-0491600D03*
X-0496600Y0564413D03*
X-0562600D03*
X-0646600Y0556413D03*
X-0629600D03*
X-0610600Y0555413D03*
X-0542600Y0563413D03*
X-0519600D03*
X-0582600Y0565413D03*
X-0360600Y0579413D03*
X-0403600Y0580413D03*
X-0493600Y0579413D03*
X-0481600Y0583413D03*
X-0445600Y0582413D03*
X-0464600Y0583413D03*
X-0423600Y0581413D03*
X-0383600Y0579413D03*
X-0362600Y0620413D03*
X-0435600Y0606413D03*
X-0385600Y0620413D03*
X-0471600Y0607413D03*
X-0466600Y0624413D03*
X-0495600Y0620413D03*
X-0483600Y0624413D03*
X-0454600Y0607413D03*
X-0447600Y0623413D03*
X-0425600Y0622413D03*
X-0413600Y0605413D03*
X-0405600Y0621413D03*
X-0350600Y0603413D03*
X-0393600Y0604413D03*
X-0373600Y0603413D03*
X-0483600D03*
X-0506600Y0602413D03*
X-0541600Y0619413D03*
X-0549600Y0603413D03*
X-0569600Y0604413D03*
X-0559600Y0579413D03*
X-0539600Y0578413D03*
X-0561600Y0620413D03*
X-0529600Y0602413D03*
X-0518600Y0619413D03*
X-0516600Y0578413D03*
X-0581600Y0621413D03*
X-0637600Y0582413D03*
X-0601600Y0581413D03*
X-0620600Y0582413D03*
X-0591600Y0605413D03*
X-0639600Y0623413D03*
X-0622600D03*
X-0603600Y0622413D03*
X-0627600Y0606413D03*
X-0610600D03*
X-0579600Y0580413D03*
X-0426600Y0566413D03*
X-0448600Y0567413D03*
X-0467600Y0568413D03*
X-0484600D03*
X-0604600Y0566413D03*
X-0623600Y0567413D03*
X-0640600D03*
X-0347600Y0552413D03*
X-0370600Y0551413D03*
X-0393600D03*
X-0413600Y0552413D03*
X-0433600Y0553413D03*
X-0455600Y0554413D03*
X-0502600Y0553413D03*
X-0588600Y0554413D03*
X-0525600Y0552413D03*
X-0548600D03*
X-0568600Y0553413D03*
X-0339600Y0621413D03*
X-0341600Y0514413D03*
X-0340600Y0550413D03*
X-0341600Y0531413D03*
X-0340600Y0565413D03*
X-0086600Y0714413D03*
X-0084600Y0697413D03*
X-0076600Y0663413D03*
X-0075600Y0683413D03*
X-0074600Y0733413D03*
X-0070600Y0745413D03*
X-0066600Y0714413D03*
X-0064600Y0697413D03*
X-0069600Y0649413D03*
X-0089600D03*
X-0090600Y0745413D03*
X-0095600Y0683413D03*
X-0096600Y0663413D03*
X-0094600Y0733413D03*
X-0124600Y0699413D03*
X-0110600Y0650413D03*
X-0111600Y0746413D03*
X-0116600Y0684413D03*
X-0117600Y0664413D03*
X-0115600Y0734413D03*
X-0136600Y0665413D03*
X-0129600Y0651413D03*
X-0145600Y0698413D03*
X-0147600Y0715413D03*
X-0126600Y0716413D03*
X-0130600Y0747413D03*
X-0135600Y0685413D03*
X-0134600Y0735413D03*
X-0155600Y0734413D03*
X-0157600Y0664413D03*
X-0156600Y0684413D03*
X-0174600Y0735413D03*
X-0170600Y0747413D03*
X-0164600Y0699413D03*
X-0166600Y0716413D03*
X-0175600Y0685413D03*
X-0176600Y0665413D03*
X-0169600Y0651413D03*
X-0150600Y0650413D03*
X-0151600Y0746413D03*
X-0105600Y0698413D03*
X-0107600Y0715413D03*
X-0196600Y0735413D03*
X-0210600Y0698413D03*
X-0198600Y0665413D03*
X-0197600Y0685413D03*
X-0212600Y0715413D03*
X-0188600Y0716413D03*
X-0191600Y0651413D03*
X-0192600Y0747413D03*
X-0220600Y0734413D03*
X-0243600Y0733413D03*
X-0239600Y0745413D03*
X-0235600Y0714413D03*
X-0233600Y0697413D03*
X-0238600Y0649413D03*
X-0244600Y0683413D03*
X-0222600Y0664413D03*
X-0221600Y0684413D03*
X-0215600Y0650413D03*
X-0216600Y0746413D03*
X-0258600Y0649413D03*
X-0265600Y0663413D03*
X-0264600Y0683413D03*
X-0253600Y0697413D03*
X-0280600Y0715413D03*
X-0255600Y0714413D03*
X-0278600Y0698413D03*
X-0259600Y0745413D03*
X-0263600Y0733413D03*
X-0245600Y0663413D03*
X-0309600Y0733413D03*
X-0333600Y0744413D03*
X-0305600Y0745413D03*
X-0334600Y0689413D03*
X-0290600Y0664413D03*
X-0311600Y0663413D03*
X-0310600Y0683413D03*
X-0332600Y0648413D03*
X-0304600Y0649413D03*
X-0289600Y0684413D03*
X-0329600Y0713413D03*
X-0301600Y0714413D03*
X-0327600Y0696413D03*
X-0299600Y0697413D03*
X-0288600Y0734413D03*
X-0284600Y0746413D03*
X-0283600Y0650413D03*
X-0186600Y0699413D03*
X-0362600Y0640413D03*
X-0385600D03*
X-0405600Y0641413D03*
X-0425600Y0642413D03*
X-0447600Y0643413D03*
X-0483600Y0644413D03*
X-0495600Y0640413D03*
X-0466600Y0644413D03*
X-0422600Y0707413D03*
X-0402600Y0706413D03*
X-0382600Y0705413D03*
X-0380600Y0688413D03*
X-0400600Y0689413D03*
X-0420600Y0690413D03*
X-0357600Y0688413D03*
X-0359600Y0705413D03*
X-0406600Y0737413D03*
X-0426600Y0738413D03*
X-0386600Y0736413D03*
X-0430600Y0726413D03*
X-0410600Y0725413D03*
X-0390600Y0724413D03*
X-0344600Y0725413D03*
X-0367600Y0724413D03*
X-0363600Y0736413D03*
X-0452600Y0727413D03*
X-0471600Y0728413D03*
X-0488600D03*
X-0500600Y0724413D03*
X-0448600Y0739413D03*
X-0467600Y0740413D03*
X-0484600D03*
X-0480600Y0709413D03*
X-0463600D03*
X-0444600Y0708413D03*
X-0490600Y0688413D03*
X-0478600Y0692413D03*
X-0461600D03*
X-0442600Y0691413D03*
X-0492600Y0705413D03*
X-0496600Y0736413D03*
X-0639600Y0643413D03*
X-0622600D03*
X-0603600Y0642413D03*
X-0518600Y0639413D03*
X-0541600D03*
X-0561600Y0640413D03*
X-0581600Y0641413D03*
X-0566600Y0724413D03*
X-0546600Y0723413D03*
X-0523600D03*
X-0519600Y0735413D03*
X-0542600D03*
X-0538600Y0704413D03*
X-0558600Y0705413D03*
X-0578600Y0706413D03*
X-0536600Y0687413D03*
X-0576600Y0689413D03*
X-0556600Y0688413D03*
X-0582600Y0737413D03*
X-0562600Y0736413D03*
X-0608600Y0726413D03*
X-0627600Y0727413D03*
X-0644600D03*
X-0600600Y0707413D03*
X-0634600Y0691413D03*
X-0617600D03*
X-0598600Y0690413D03*
X-0619600Y0708413D03*
X-0636600D03*
X-0604600Y0738413D03*
X-0623600Y0739413D03*
X-0640600D03*
X-0586600Y0725413D03*
X-0515600Y0704413D03*
X-0513600Y0687413D03*
X-0337600Y0732413D03*
X-0340600Y0737413D03*
X-0336600Y0706413D03*
X-0338600Y0682413D03*
X-0339600Y0662413D03*
Y0641413D03*
X-0069600Y0629413D03*
X-0089600D03*
X-0110600Y0630413D03*
X-0129600Y0631413D03*
X-0150600Y0630413D03*
X-0169600Y0631413D03*
X-0191600D03*
X-0215600Y0630413D03*
X-0283600D03*
X-0238600Y0629413D03*
X-0258600D03*
X-0332600Y0628413D03*
X-0304600Y0629413D03*
X-0084600Y0808413D03*
X-0083600Y0791413D03*
Y0767413D03*
X-0064600Y0808413D03*
X-0075600Y0876413D03*
Y0859413D03*
D03*
X-0074600Y0836413D03*
X-0063600Y0791413D03*
X-0078600Y0778413D03*
X-0058600D03*
X-0063600Y0767413D03*
X-0094600Y0836413D03*
X-0095600Y0859413D03*
X-0158600Y0780413D03*
X-0124600Y0810413D03*
X-0123600Y0793413D03*
Y0769413D03*
X-0105600Y0809413D03*
X-0104600Y0792413D03*
X-0139600Y0779413D03*
X-0144600Y0792413D03*
X-0145600Y0809413D03*
X-0144600Y0768413D03*
X-0163600Y0769413D03*
X-0164600Y0810413D03*
X-0163600Y0793413D03*
X-0118600Y0780413D03*
X-0104600Y0768413D03*
X-0156600Y0877413D03*
Y0860413D03*
D03*
X-0155600Y0837413D03*
X-0134600Y0838413D03*
X-0135600Y0861413D03*
D03*
Y0878413D03*
X-0116600Y0860413D03*
Y0877413D03*
Y0860413D03*
X-0115600Y0837413D03*
X-0096600Y0859413D03*
Y0876413D03*
X-0099600Y0779413D03*
X-0227600Y0778413D03*
X-0185600Y0769413D03*
X-0186600Y0810413D03*
X-0210600Y0809413D03*
X-0185600Y0793413D03*
X-0209600Y0792413D03*
X-0180600Y0780413D03*
X-0247600Y0778413D03*
X-0233600Y0808413D03*
X-0232600Y0791413D03*
Y0767413D03*
X-0209600Y0768413D03*
X-0204600Y0779413D03*
X-0293600Y0778413D03*
X-0272600Y0779413D03*
X-0299600Y0808413D03*
X-0278600Y0809413D03*
X-0298600Y0791413D03*
X-0277600Y0792413D03*
X-0298600Y0767413D03*
X-0277600Y0768413D03*
X-0253600Y0808413D03*
X-0252600Y0791413D03*
Y0767413D03*
X-0196600Y0838413D03*
X-0220600Y0837413D03*
X-0221600Y0877413D03*
X-0197600D03*
X-0177600Y0878413D03*
X-0175600Y0861413D03*
X-0197600D03*
X-0221600Y0860413D03*
X-0197600D03*
X-0177600Y0861413D03*
X-0244600Y0859413D03*
D03*
X-0243600Y0836413D03*
X-0244600Y0876413D03*
X-0221600Y0860413D03*
X-0311600Y0859413D03*
X-0310600D03*
X-0288600Y0837413D03*
X-0309600Y0836413D03*
X-0289600Y0860413D03*
X-0290600Y0859413D03*
X-0311600Y0876413D03*
X-0290600D03*
X-0264600Y0859413D03*
X-0265600D03*
X-0263600Y0836413D03*
X-0265600Y0876413D03*
X-0174600Y0838413D03*
X-0328600Y0770413D03*
X-0326600Y0790413D03*
X-0357600Y0799413D03*
X-0356600Y0782413D03*
X-0351600Y0769413D03*
X-0379600Y0782413D03*
X-0374600Y0769413D03*
X-0380600Y0799413D03*
X-0326600Y0766413D03*
X-0333600Y0783413D03*
X-0327600Y0807413D03*
X-0334600Y0800413D03*
X-0361600Y0858413D03*
Y0875413D03*
D15*
G01X-0355600Y0834588D02*
G01Y0828238D01*
D14*
X-0337600Y0835413D03*
X-0338600Y0858413D03*
D03*
Y0875413D03*
X-0420600Y0801413D03*
X-0400600Y0800413D03*
X-0394600Y0770413D03*
X-0414600Y0771413D03*
X-0419600Y0784413D03*
X-0399600Y0783413D03*
X-0412600Y0858413D03*
Y0875413D03*
X-0386600Y0858413D03*
Y0875413D03*
X-0477600Y0786413D03*
X-0478600Y0803413D03*
X-0461600D03*
X-0442600Y0802413D03*
X-0484600Y0769413D03*
X-0472600Y0773413D03*
X-0455600D03*
X-0436600Y0772413D03*
X-0489600Y0782413D03*
X-0490600Y0799413D03*
X-0441600Y0785413D03*
X-0460600Y0786413D03*
X-0438600Y0857413D03*
X-0463600Y0858413D03*
X-0485600D03*
X-0463600Y0875413D03*
X-0485600D03*
X-0438600Y0874413D03*
X-0507600Y0768413D03*
X-0530600D03*
X-0512600Y0874413D03*
Y0857413D03*
X-0537600Y0858413D03*
X-0560600Y0857413D03*
Y0874413D03*
X-0537600Y0875413D03*
X-0513600Y0798413D03*
X-0536600D03*
X-0556600Y0799413D03*
X-0512600Y0781413D03*
X-0570600Y0770413D03*
X-0550600Y0769413D03*
X-0535600Y0781413D03*
X-0555600Y0782413D03*
X-0633600Y0785413D03*
X-0616600D03*
X-0634600Y0802413D03*
X-0617600D03*
X-0598600Y0801413D03*
X-0597600Y0784413D03*
X-0611600Y0772413D03*
X-0592600Y0771413D03*
X-0628600Y0772413D03*
X-0621600Y0871413D03*
X-0620600Y0890413D03*
X-0638600Y0888413D03*
X-0639600Y0869413D03*
X-0601600Y0873413D03*
Y0856413D03*
X-0621600Y0854413D03*
X-0639600Y0852413D03*
X-0581600Y0874413D03*
Y0857413D03*
X-0576600Y0800413D03*
X-0575600Y0783413D03*
X-0321600Y0777413D03*
X-0112600Y0958413D03*
X-0113600Y0938413D03*
X-0114600Y0918413D03*
X-0092600Y0957413D03*
X-0093600Y0937413D03*
X-0094600Y0917413D03*
X-0073600D03*
X-0072600Y0937413D03*
X-0071600Y0957413D03*
X-0153600Y0938413D03*
X-0131600Y0959413D03*
X-0132600Y0939413D03*
X-0133600Y0919413D03*
X-0173600Y0959413D03*
X-0174600Y0939413D03*
X-0175600Y0919413D03*
X-0152600Y0958413D03*
X-0154600Y0918413D03*
X-0072600Y1003413D03*
X-0071600Y0980413D03*
X-0069600Y1022413D03*
X-0089600D03*
X-0093600Y1003413D03*
X-0092600Y0980413D03*
X-0153600Y1004413D03*
X-0129600Y1024413D03*
X-0150600Y1023413D03*
X-0173600Y0982413D03*
X-0174600Y1005413D03*
X-0169600Y1024413D03*
X-0131600Y0982413D03*
X-0132600Y1005413D03*
X-0152600Y0981413D03*
X-0113600Y1004413D03*
X-0112600Y0981413D03*
X-0110600Y1023413D03*
X-0194600Y0938413D03*
X-0218600D03*
X-0195600Y0918413D03*
X-0219600D03*
X-0309600Y0917413D03*
X-0288600D03*
X-0263600D03*
X-0242600D03*
X-0308600Y0937413D03*
X-0241600D03*
X-0287600D03*
X-0262600D03*
X-0193600Y0958413D03*
X-0217600D03*
X-0193600Y0981413D03*
X-0217600D03*
X-0286600Y0980413D03*
X-0334600Y0979413D03*
X-0307600Y0980413D03*
X-0240600D03*
X-0261600Y0957413D03*
X-0240600D03*
X-0286600D03*
X-0334600Y0956413D03*
X-0307600Y0957413D03*
X-0261600Y0980413D03*
X-0194600Y1004413D03*
X-0218600D03*
X-0191600Y1024413D03*
X-0215600Y1023413D03*
X-0283600D03*
X-0241600Y1003413D03*
X-0258600Y1022413D03*
X-0238600D03*
X-0304600D03*
X-0332600Y1021413D03*
X-0287600Y1003413D03*
X-0308600D03*
X-0262600D03*
X-0357600Y0956413D03*
X-0358600Y0936413D03*
X-0359600Y0916413D03*
X-0382600Y0956413D03*
X-0408600D03*
X-0434600Y0955413D03*
X-0459600Y0956413D03*
X-0384600Y0916413D03*
X-0410600D03*
X-0460600Y0936413D03*
X-0435600Y0935413D03*
X-0409600Y0936413D03*
X-0383600D03*
X-0436600Y0915413D03*
X-0461600Y0916413D03*
X-0510600Y0915413D03*
X-0509600Y0935413D03*
X-0508600Y0955413D03*
X-0578600Y0935413D03*
X-0577600Y0955413D03*
X-0556600D03*
X-0533600Y0956413D03*
X-0534600Y0936413D03*
X-0535600Y0916413D03*
X-0579600Y0915413D03*
X-0558600D03*
X-0557600Y0935413D03*
X-0481600Y0956413D03*
X-0482600Y0936413D03*
X-0483600Y0916413D03*
X-0599600Y0914413D03*
X-0619600Y0912413D03*
X-0637600Y0910413D03*
X-0618600Y0932413D03*
X-0636600Y0930413D03*
X-0635600Y0950413D03*
X-0617600Y0952413D03*
X-0597600Y0954413D03*
X-0598600Y0934413D03*
X-0362600Y1013413D03*
X-0358600Y1002413D03*
X-0357600Y0979413D03*
X-0385600Y1013413D03*
X-0405600Y1014413D03*
X-0382600Y0979413D03*
X-0408600D03*
X-0434600Y0978413D03*
X-0383600Y1002413D03*
X-0409600D03*
X-0435600Y1001413D03*
X-0425600Y1015413D03*
X-0508600Y0978413D03*
X-0509600Y1001413D03*
X-0460600Y1002413D03*
X-0482600D03*
X-0481600Y0979413D03*
X-0459600D03*
X-0483600Y1017413D03*
X-0466600D03*
X-0447600Y1016413D03*
X-0495600Y1013413D03*
X-0534600Y1002413D03*
X-0578600Y1001413D03*
X-0557600D03*
X-0533600Y0979413D03*
X-0577600Y0978413D03*
X-0556600D03*
X-0561600Y1013413D03*
X-0581600Y1014413D03*
X-0518600Y1012413D03*
X-0541600D03*
X-0639600Y1016413D03*
X-0598600Y1000413D03*
X-0636600Y0996413D03*
X-0618600Y0998413D03*
X-0597600Y0977413D03*
X-0617600Y0975413D03*
X-0603600Y1015413D03*
X-0635600Y0973413D03*
X-0622600Y1016413D03*
X-0339600Y1014413D03*
X-0335600Y1002413D03*
X-0336600Y0916413D03*
X-0335600Y0936413D03*
X-0155600Y0896413D03*
X-0074600Y0895413D03*
X-0095600D03*
X-0115600Y0896413D03*
X-0134600Y0897413D03*
X-0196600Y0896413D03*
X-0220600D03*
X-0176600Y0897413D03*
X-0264600Y0895413D03*
X-0289600D03*
X-0310600D03*
X-0243600D03*
X-0600600Y0892413D03*
X-0536600Y0894413D03*
X-0559600Y0893413D03*
X-0580600D03*
X-0484600Y0894413D03*
X-0462600D03*
X-0437600Y0893413D03*
X-0411600Y0894413D03*
X-0385600D03*
X-0511600Y0893413D03*
X-0360600Y0894413D03*
X-0337600D03*
X-0333600Y0759413D03*
X-0356600Y0758413D03*
X-0535600Y0757413D03*
X-0512600D03*
X-0441600Y0761413D03*
X-0460600Y0762413D03*
X-0477600D03*
X-0379600Y0758413D03*
X-0399600Y0759413D03*
X-0419600Y0760413D03*
X-0489600Y0758413D03*
X-0633600Y0761413D03*
X-0616600D03*
X-0555600Y0758413D03*
X-0575600Y0759413D03*
X-0597600Y0760413D03*
X-0066600Y0479413D03*
X-0116600Y0475413D03*
X-0139600D03*
M02*

